<svg preserveAspectRatio="none" width="100%" height="100%" overflow="visible" style="display: block;" viewBox="0 0 156.495 20" fill="none" xmlns="http://www.w3.org/2000/svg">
<g id="Group 5">
<g id="Vector">
<path d="M3.60361 11.7916H0V18.9979H3.60361V11.7916Z" fill="url(#paint0_linear_468_269)"/>
<path d="M48.7287 11.7916H45.1251V18.9979H48.7287V11.7916Z" fill="url(#paint1_linear_468_269)"/>
<path d="M9.00859 4.58438H5.40498V18.9979H9.00859V4.58438Z" fill="url(#paint2_linear_468_269)"/>
<path d="M14.5156 4.58438H10.912V18.9979H14.5156V4.58438Z" fill="url(#paint3_linear_468_269)"/>
<path d="M37.9702 4.58438H34.3666V18.9979H37.9702V4.58438Z" fill="url(#paint4_linear_468_269)"/>
<path d="M43.3752 4.58438H39.7716V18.9979H43.3752V4.58438Z" fill="url(#paint5_linear_468_269)"/>
<path d="M16.2483 18.9979H23.4348V15.3943H19.8519V4.57536H23.4348V0.972656H16.2483V18.9979Z" fill="url(#paint6_linear_468_269)"/>
<path d="M25.2641 4.57536H28.9048V8.18169H25.2641V18.9979L32.5084 18.9943V15.3907H28.8677V11.7853H32.5084V0.972656H25.2641V4.57536Z" fill="url(#paint7_linear_468_269)"/>
</g>
<g id="Vector_2">
<path d="M60.6501 18.9409L60.1309 19.7553C59.367 18.9409 58.7277 18.1291 58.214 17.3219C57.6993 16.5138 57.2821 15.703 56.9616 14.8885C56.6411 14.0741 56.4117 13.2488 56.2745 12.4136C56.1372 11.5784 56.0686 10.7197 56.0686 9.83749C56.0686 7.97745 56.3837 6.21582 57.0158 4.55262C57.6469 2.88941 58.6501 1.3788 60.0253 0.020791L60.5905 0.733206C60.1219 1.27677 59.7065 1.91154 59.3454 2.6375C58.9842 3.36436 58.6808 4.13095 58.4361 4.93907C58.1914 5.7472 58.0054 6.57158 57.879 7.41402C57.7517 8.25646 57.6876 9.06368 57.6876 9.83749C57.6876 10.6113 57.749 11.423 57.8709 12.2303C57.9928 13.0384 58.1761 13.8357 58.4207 14.623C58.6654 15.4104 58.9733 16.1707 59.3454 16.9039C59.7174 17.637 60.1526 18.316 60.651 18.9409H60.6501Z" fill="var(--fill-0, #0F0F0F)"/>
<path d="M70.3684 15.0709C70.3684 15.4375 70.3612 15.8275 70.3467 16.242C70.3323 16.6564 70.3133 17.0673 70.2889 17.4745C70.2646 17.8817 70.2384 18.2754 70.2095 18.6555C70.1806 19.0357 70.1472 19.3688 70.1083 19.6533L68.8858 19.9585C68.8668 19.7273 68.8497 19.4357 68.8352 19.0826C68.8208 18.7296 68.809 18.3558 68.7991 17.9621C68.7892 17.5684 68.7819 17.1774 68.7774 16.7883C68.7729 16.4 68.7702 16.056 68.7702 15.7562V11.7499C68.3774 11.777 67.9693 11.8005 67.5476 11.8212C67.126 11.842 66.7133 11.8655 66.3106 11.8926V14.6926C66.3106 15.0474 66.3034 15.4321 66.2889 15.8474C66.2745 16.2628 66.2555 16.6754 66.2311 17.0835C66.2068 17.4926 66.1806 17.8835 66.1517 18.2564C66.1228 18.6302 66.0894 18.9589 66.0506 19.2442L64.8424 19.5494C64.8235 19.3183 64.8036 19.0266 64.7846 18.6736C64.7657 18.3205 64.7512 17.9503 64.7413 17.5639C64.7314 17.1765 64.7241 16.7901 64.7196 16.4027C64.7151 16.0154 64.7124 15.6731 64.7124 15.3743V11.9729C64.4632 11.9865 64.2329 11.9964 64.0226 12.0036C63.8113 12.0108 63.6388 12.0208 63.5052 12.0343C63.3228 12.0479 63.126 12.0686 62.9156 12.0957C62.7043 12.1228 62.4957 12.1499 62.2898 12.177C62.084 12.2041 61.8799 12.2348 61.6786 12.2691C61.4772 12.3034 61.2948 12.3341 61.1323 12.3603L60.5571 10.344C60.7675 10.3847 61.0004 10.4226 61.2542 10.456C61.5079 10.4903 61.767 10.521 62.0307 10.5481C62.2943 10.5752 62.5535 10.5986 62.8072 10.6194C63.0609 10.6393 63.2894 10.6501 63.4907 10.6501C63.721 10.6637 64.0181 10.6709 64.3819 10.6709C64.7458 10.6709 65.144 10.6673 65.5756 10.661C66.0072 10.6546 66.4551 10.6438 66.9201 10.6303C67.3851 10.6167 67.833 10.6032 68.2646 10.5896C68.6962 10.5761 69.0916 10.5589 69.451 10.5391C69.8104 10.5192 70.1056 10.502 70.3359 10.4885C70.6519 10.4749 70.9833 10.4479 71.3282 10.4072C71.6731 10.3666 72.0162 10.3224 72.3566 10.2745C72.6971 10.2266 73.0257 10.1797 73.3418 10.1318C73.6578 10.0849 73.9458 10.0334 74.205 9.97923L74.0036 11.8935C73.8113 11.8799 73.5837 11.8628 73.3201 11.8429C73.0564 11.8221 72.7711 11.8059 72.4641 11.7923C72.1571 11.7788 71.8411 11.7652 71.5151 11.7517C71.1892 11.7382 70.8677 11.7309 70.5517 11.7309H70.4722C70.4388 11.7309 70.4027 11.7246 70.3648 11.7102V15.0709H70.3684ZM68.2248 1.52687C68.6465 1.62167 69.0302 1.7851 69.3752 2.01535C69.7201 2.2465 70.0171 2.52822 70.2664 2.8605C70.5156 3.19368 70.7097 3.56298 70.8488 3.97021C70.9878 4.37743 71.0573 4.81264 71.0573 5.27404C71.0573 5.83115 70.9661 6.34312 70.7837 6.81174C70.6013 7.28036 70.3494 7.68759 70.0289 8.03341C69.7074 8.37924 69.3219 8.64831 68.8713 8.83793C68.4208 9.02845 67.9314 9.12325 67.4041 9.12325C66.8767 9.12325 66.4262 9.02845 65.9946 8.83793C65.563 8.64831 65.1892 8.37924 64.8731 8.03341C64.5571 7.68759 64.3097 7.27946 64.1327 6.81174C63.9548 6.34312 63.8664 5.83115 63.8664 5.27404C63.8664 4.7991 63.9404 4.34763 64.0894 3.91964C64.2384 3.49165 64.4442 3.10881 64.7079 2.7693C64.9716 2.4298 65.2858 2.14808 65.6497 1.92416C66.0135 1.70023 66.4117 1.55395 66.8433 1.48623C66.8244 1.33725 66.7594 1.21445 66.6492 1.11964C66.539 1.02483 66.3828 0.94357 66.1815 0.874947L66.4551 0.101132C66.5697 0.12822 66.716 0.162532 66.8939 0.203164C67.0709 0.243796 67.2533 0.291651 67.4402 0.345827C67.6271 0.400003 67.8113 0.451471 67.9937 0.498423C68.1761 0.546279 68.3296 0.583299 68.4542 0.610387C68.3964 0.922802 68.3196 1.22799 68.2239 1.52687H68.2248ZM69.3761 5.19278C69.3761 4.83973 69.3228 4.50384 69.2181 4.1842C69.1124 3.86547 68.9706 3.58646 68.7937 3.34899C68.6158 3.11152 68.4126 2.92461 68.1824 2.78917C67.9521 2.65373 67.7174 2.5851 67.4781 2.5851C67.2388 2.5851 66.9896 2.65282 66.7594 2.78917C66.5291 2.92551 66.3278 3.11152 66.1553 3.34899C65.9828 3.58646 65.8465 3.86547 65.7454 4.1842C65.6442 4.50294 65.5946 4.83973 65.5946 5.19278C65.5946 5.58646 65.6451 5.94312 65.7454 6.26185C65.8456 6.58149 65.9801 6.85598 66.1481 7.08714C66.316 7.31829 66.5147 7.49436 66.7449 7.61716C66.9752 7.73906 67.2199 7.80045 67.4781 7.80045C67.7363 7.80045 67.9675 7.73906 68.1968 7.61716C68.4271 7.49526 68.6284 7.31829 68.8009 7.08714C68.9734 6.85689 69.1124 6.58149 69.2181 6.26185C69.3237 5.94312 69.3761 5.58646 69.3761 5.19278Z" fill="var(--fill-0, #0F0F0F)"/>
<path d="M74.2077 18.9409C74.6962 18.316 75.1242 17.637 75.4907 16.9039C75.8573 16.1707 76.1625 15.4104 76.4072 14.623C76.6519 13.8357 76.8352 13.0375 76.9571 12.2303C77.079 11.4221 77.1404 10.6249 77.1404 9.83749C77.1404 9.05014 77.0763 8.25555 76.9499 7.41402C76.8226 6.57248 76.6366 5.7472 76.3919 4.93907C76.1472 4.13095 75.8474 3.36436 75.4907 2.6375C75.1341 1.91154 74.7269 1.27677 74.2691 0.733206L74.8036 0.020791C76.1788 1.3788 77.1838 2.88941 77.8203 4.55262C78.4569 6.21582 78.7747 7.97745 78.7747 9.83749C78.7747 10.7206 78.7034 11.5793 78.5607 12.4136C78.4181 13.2488 78.1869 14.0732 77.8655 14.8885C77.5449 15.703 77.1251 16.5147 76.605 17.3219C76.0858 18.13 75.4492 18.9409 74.6953 19.7553L74.2068 18.9409H74.2077Z" fill="var(--fill-0, #0F0F0F)"/>
<path d="M92.642 2.586C92.642 2.19233 92.4551 1.86998 92.0822 1.61896C91.7084 1.36795 91.0736 1.12686 90.1779 0.895711L90.5237 0C90.8632 0.0406321 91.2533 0.0948081 91.6948 0.162528C92.1364 0.230248 92.5707 0.305192 92.9987 0.386456C93.4266 0.46772 93.8339 0.542664 94.2203 0.610384C94.6077 0.678104 94.9228 0.73228 95.1675 0.772912C95.1404 0.894808 95.1133 1.05824 95.0862 1.2614C95.0592 1.46546 95.0357 1.66862 95.0149 1.87269C94.9951 2.07675 94.9779 2.25643 94.9643 2.41264C94.9508 2.56885 94.9445 2.65372 94.9445 2.66727V8.12551C95.2434 8.09842 95.572 8.06772 95.9323 8.03341C96.2917 8 96.6555 7.96208 97.0221 7.92144C97.3887 7.88081 97.7418 7.83657 98.0813 7.78871C98.4208 7.74086 98.726 7.69029 98.9978 7.63612L98.7531 9.53047C98.5355 9.51693 98.2745 9.50971 97.9693 9.50971H94.9445V13.8483C94.9445 14.2691 94.9373 14.7549 94.9246 15.3047C94.9111 15.8546 94.8903 16.4081 94.8632 16.9643C94.8361 17.5205 94.8018 18.0506 94.7612 18.5526C94.7206 19.0546 94.6799 19.4555 94.6393 19.7544L92.847 19.9991C92.8199 19.7815 92.7964 19.4862 92.7756 19.1133C92.7549 18.7395 92.735 18.3359 92.7142 17.9016C92.6944 17.4673 92.6772 17.0257 92.6637 16.5779C92.6501 16.13 92.6438 15.7093 92.6438 15.3156V11.5883C92.019 11.833 91.3228 12.0804 90.5562 12.3314C89.7887 12.5824 89.0185 12.8235 88.2447 13.0546C87.4709 13.2858 86.7206 13.4862 85.9937 13.6551C85.2668 13.8248 84.6258 13.9503 84.0686 14.0316C83.2948 14.1535 82.7377 14.0623 82.3982 13.7562C82.0587 13.451 81.889 12.9652 81.889 12.2998V6.39368C81.889 6.16253 81.8691 5.96298 81.8276 5.79323C81.7869 5.62348 81.702 5.47449 81.5729 5.34537C81.4438 5.21625 81.2605 5.10068 81.023 4.99955C80.7856 4.89752 80.4759 4.79278 80.0966 4.68352L80.4425 3.76704C81.2298 3.88894 82.0786 3.96749 82.9887 4.0009C83.898 4.03521 84.8118 4.03521 85.7282 4.0009C86.6447 3.96749 87.5305 3.9061 88.3865 3.81761C89.2416 3.72912 90.009 3.62438 90.6881 3.50158L90.3621 5.31467C89.0998 5.2605 87.9486 5.24063 86.9102 5.25327C85.8718 5.26682 84.958 5.30745 84.1707 5.37517V11.8926C84.1707 12.0831 84.1914 12.2149 84.2321 12.2898C84.2727 12.3648 84.3404 12.4018 84.4361 12.4018C84.8434 12.3747 85.3833 12.2971 86.0551 12.1679C86.7269 12.0388 87.4429 11.8898 88.2041 11.7201C88.9643 11.5503 89.7346 11.3607 90.5156 11.1494C91.2966 10.9391 92.0054 10.7386 92.6438 10.549V2.586H92.642Z" fill="var(--fill-0, #0F0F0F)"/>
<path d="M107.686 4.43883C107.482 4.42528 107.244 4.42167 106.973 4.42889C106.702 4.43612 106.42 4.44966 106.128 4.46953C105.836 4.49029 105.54 4.51377 105.242 4.54086C104.944 4.56795 104.672 4.58871 104.428 4.60226C104.306 4.6158 104.123 4.63296 103.878 4.65282C103.633 4.67359 103.365 4.69707 103.074 4.72415C102.781 4.75124 102.483 4.77833 102.177 4.80542C101.872 4.83251 101.596 4.86682 101.352 4.90745L100.231 3.05372C100.38 3.08081 100.598 3.11512 100.883 3.15576C101.168 3.19639 101.477 3.23431 101.809 3.26772C102.142 3.30203 102.468 3.33273 102.787 3.35892C103.106 3.386 103.374 3.39955 103.592 3.39955C103.958 3.39955 104.414 3.39323 104.956 3.37878C105.499 3.36524 106.083 3.34808 106.708 3.32822C107.332 3.30745 107.964 3.27765 108.602 3.23702C109.241 3.19639 109.837 3.14853 110.395 3.09436C110.367 3.17562 110.337 3.29481 110.302 3.45102C110.268 3.60722 110.231 3.76975 110.19 3.9395C110.15 4.10926 110.112 4.27269 110.079 4.42799C110.044 4.5842 110.021 4.69616 110.007 4.76388L109.579 7.81941C109.715 7.79233 109.851 7.77517 109.986 7.76885C110.122 7.76253 110.245 7.75169 110.353 7.73815L110.19 9.22528C109.376 9.18465 108.659 9.16117 108.042 9.15395C107.424 9.14763 106.87 9.15034 106.382 9.16388C105.893 9.17743 105.458 9.19819 105.078 9.22528C104.698 9.25237 104.338 9.27946 103.999 9.30655C103.999 9.4158 103.992 9.507 103.978 9.58194C103.965 9.65688 103.958 9.74808 103.958 9.85734V12.6068C103.958 12.7702 103.995 12.8885 104.069 12.9634C104.144 13.0384 104.216 13.0691 104.283 13.0555C104.745 13.042 105.305 12.9878 105.964 12.893C106.622 12.7982 107.328 12.679 108.082 12.5363C108.836 12.3937 109.606 12.2275 110.394 12.037C111.181 11.8474 111.935 11.637 112.655 11.4059V2.586C112.655 2.19233 112.464 1.86998 112.084 1.61896C111.704 1.36795 111.065 1.12686 110.17 0.895711L110.577 0C110.916 0.0406321 111.3 0.0948081 111.727 0.162528C112.155 0.230248 112.586 0.305192 113.02 0.386456C113.455 0.46772 113.865 0.542664 114.253 0.610384C114.64 0.678104 114.963 0.73228 115.22 0.772912C115.179 0.894808 115.145 1.05824 115.118 1.2614C115.091 1.46546 115.064 1.66862 115.037 1.87269C115.009 2.07675 114.989 2.25643 114.975 2.41264C114.962 2.56885 114.954 2.65372 114.954 2.66727V7.92235C115.253 7.89526 115.586 7.86095 115.952 7.82032C116.319 7.77968 116.685 7.73905 117.052 7.69842C117.418 7.65779 117.768 7.61354 118.101 7.56569C118.433 7.51783 118.729 7.46727 118.987 7.41309L118.783 9.32731C118.579 9.31377 118.321 9.30384 118.009 9.29661C117.697 9.29029 117.367 9.28668 117.021 9.28668H114.953V13.8492C114.953 14.27 114.944 14.7558 114.923 15.3056C114.902 15.8555 114.875 16.409 114.842 16.9652C114.807 17.5214 114.774 18.0515 114.739 18.5535C114.705 19.0555 114.668 19.4564 114.628 19.7553L112.835 20C112.808 19.7824 112.785 19.4871 112.764 19.1142C112.743 18.7404 112.723 18.3368 112.702 17.9025C112.682 17.4682 112.668 17.0266 112.662 16.5788C112.655 16.1309 112.652 15.7102 112.652 15.3165V12.5056C111.959 12.7368 111.216 12.9634 110.422 13.1883C109.627 13.4131 108.836 13.6235 108.049 13.8194C107.261 14.0163 106.515 14.186 105.809 14.3287C105.102 14.4713 104.491 14.577 103.976 14.6447C103.121 14.754 102.526 14.6483 102.193 14.3287C101.86 14.0099 101.694 13.5178 101.694 12.8524V10.1436C101.694 9.91332 101.677 9.7228 101.643 9.57381C101.609 9.42483 101.538 9.29571 101.429 9.18646C101.32 9.0781 101.165 8.98239 100.961 8.90113C100.757 8.81986 100.485 8.73138 100.146 8.63657L100.594 7.86275C101.829 7.98465 103.031 8.04966 104.2 8.05598C105.367 8.06321 106.467 8.03251 107.499 7.96388L107.682 4.44063L107.686 4.43883Z" fill="var(--fill-0, #0F0F0F)"/>
<path d="M130.623 3.11512C130.284 4.13363 129.788 5.14131 129.136 6.13996C128.484 7.1377 127.714 8.0921 126.824 9.00135C125.935 9.91151 124.947 10.753 123.861 11.5269C122.775 12.3007 121.634 12.9734 120.439 13.5431L119.848 12.7892C120.745 12.3007 121.596 11.7201 122.404 11.0474C123.212 10.3756 123.956 9.65959 124.635 8.89842C125.314 8.13815 125.911 7.35711 126.427 6.55621C126.943 5.75531 127.35 4.98149 127.649 4.23476C127.037 4.23476 126.474 4.24831 125.958 4.2754C125.442 4.30248 125.042 4.32957 124.757 4.35666C124.621 4.3702 124.434 4.38375 124.197 4.39729C123.959 4.41084 123.701 4.43522 123.423 4.46862C123.145 4.50294 122.86 4.53996 122.568 4.58059C122.275 4.62122 122.014 4.66908 121.784 4.72325L120.521 2.80903C120.684 2.83612 120.915 2.86321 121.214 2.89029C121.512 2.91738 121.835 2.94808 122.181 2.98239C122.526 3.0167 122.866 3.04379 123.199 3.06366C123.531 3.08442 123.813 3.09436 124.044 3.09436C124.587 3.09436 125.144 3.0772 125.715 3.04379C126.285 3.01038 126.828 2.96975 127.344 2.9219C127.86 2.87404 128.332 2.81986 128.76 2.75937C129.188 2.69887 129.524 2.64108 129.769 2.586L130.624 3.11512H130.623ZM136.408 19.0628C135.607 19.0357 134.776 19.0185 133.913 19.0122C133.051 19.005 132.206 19.005 131.378 19.0122C130.55 19.0185 129.755 19.0357 128.995 19.0628C128.235 19.0898 127.556 19.1242 126.958 19.1648C126.414 19.2054 126.028 19.1007 125.797 18.8515C125.566 18.6014 125.451 18.3224 125.451 18.0126V15.4898C125.451 15.2072 125.437 14.9815 125.41 14.8135C125.383 14.6456 125.312 14.5029 125.196 14.3856C125.081 14.2682 124.904 14.1679 124.666 14.0858C124.429 14.0027 124.099 13.9061 123.679 13.7959L124.045 12.8713C124.249 12.8984 124.524 12.9327 124.87 12.9734C125.216 13.014 125.577 13.0619 125.949 13.116C126.322 13.1702 126.685 13.2217 127.039 13.2686C127.392 13.3165 127.67 13.3598 127.874 13.4014C127.861 13.4826 127.847 13.5919 127.834 13.7273C127.82 13.8628 127.807 14.009 127.793 14.1652C127.78 14.3214 127.766 14.474 127.753 14.623C127.739 14.7729 127.732 14.9084 127.732 15.0303V17.3725C127.732 17.6027 127.755 17.7391 127.803 17.7797C127.851 17.8203 127.977 17.8474 128.18 17.861C128.682 17.8745 129.303 17.8637 130.043 17.8303C130.783 17.7959 131.55 17.749 132.345 17.6876C133.139 17.6262 133.927 17.5549 134.708 17.4736C135.489 17.3923 136.171 17.3111 136.755 17.2289L136.409 19.0619L136.408 19.0628ZM133.393 8.75666C132.66 8.78375 131.906 8.83522 131.132 8.90926C130.358 8.9842 129.679 9.09616 129.095 9.24515L128.24 7.47359C128.376 7.48713 128.572 7.50429 128.831 7.52415C129.089 7.54492 129.36 7.56208 129.645 7.57472C129.93 7.58826 130.212 7.59819 130.49 7.60542C130.768 7.61264 131.002 7.61535 131.193 7.61535C131.465 7.60181 131.791 7.59187 132.171 7.58465C132.551 7.57833 132.958 7.56749 133.392 7.55395V2.586C133.392 2.19233 133.192 1.86998 132.792 1.61896C132.391 1.36795 131.743 1.12686 130.847 0.895711L131.316 0C131.628 0.0406321 131.995 0.0948081 132.415 0.162528C132.836 0.230248 133.264 0.305192 133.698 0.386456C134.133 0.46772 134.55 0.542664 134.951 0.610384C135.351 0.678104 135.688 0.73228 135.959 0.772912C135.932 0.894808 135.905 1.05824 135.878 1.2614C135.851 1.46546 135.824 1.66862 135.797 1.87269C135.77 2.07675 135.746 2.25643 135.725 2.41264C135.705 2.56885 135.695 2.65372 135.695 2.66727V10.9363C135.695 11.2488 135.685 11.5847 135.664 11.9449C135.643 12.3052 135.616 12.6682 135.583 13.0348C135.549 13.4014 135.508 13.7481 135.461 14.0731C135.413 14.3991 135.369 14.6772 135.328 14.9084L133.557 15.1937C133.53 15.0303 133.509 14.8 133.495 14.5011C133.482 14.2023 133.465 13.8799 133.445 13.5341C133.425 13.1883 133.41 12.8415 133.404 12.4957C133.397 12.1499 133.394 11.8537 133.394 11.6099V8.75847L133.393 8.75666Z" fill="var(--fill-0, #0F0F0F)"/>
<path d="M146.512 5.92596C147.177 6.48307 147.903 7.03928 148.692 7.59639C149.479 8.1535 150.28 8.66907 151.095 9.14402C150.823 9.4158 150.545 9.67675 150.26 9.92776C149.975 10.1788 149.697 10.4406 149.425 10.7115C148.813 10.0876 148.199 9.45553 147.582 8.81716C146.963 8.17878 146.33 7.56117 145.678 6.96343C144.863 7.87359 143.949 8.69436 142.938 9.42754C141.927 10.1607 140.851 10.8397 139.71 11.4646C139.615 11.3427 139.523 11.2235 139.435 11.1079C139.346 10.9923 139.255 10.874 139.159 10.7512C139.892 10.2898 140.591 9.76343 141.257 9.17291C141.922 8.58239 142.53 7.96479 143.08 7.31919C143.63 6.67449 144.108 6.00903 144.516 5.3228C144.923 4.63747 145.241 3.95485 145.473 3.27585C145.486 3.22167 145.5 3.11332 145.513 2.94989C145.527 2.78736 145.492 2.69255 145.411 2.66456C145.302 2.55621 145.122 2.44786 144.871 2.3386C144.62 2.23025 144.372 2.10835 144.128 1.97201C144.223 1.85011 144.314 1.72099 144.404 1.58465C144.492 1.44921 144.577 1.32009 144.658 1.19729C144.93 1.27856 145.232 1.36704 145.565 1.46185C145.897 1.55666 146.234 1.65508 146.573 1.75711C146.913 1.85914 147.245 1.96749 147.571 2.08307C147.897 2.19865 148.195 2.30429 148.467 2.3991C148.236 3.06456 147.95 3.68939 147.612 4.27269C147.272 4.85689 146.906 5.40677 146.512 5.92235V5.92596ZM152.907 14.5616C152.921 14.2221 152.931 13.8935 152.938 13.5738C152.944 13.2551 152.955 12.9318 152.969 12.6068C152.832 12.6068 152.693 12.6041 152.552 12.5968C152.409 12.5905 152.256 12.5869 152.094 12.5869C151.483 12.5869 150.838 12.6077 150.159 12.6483C149.48 12.6889 148.855 12.7368 148.285 12.791C148.163 12.8045 147.98 12.8217 147.735 12.8415C147.491 12.8614 147.219 12.8858 146.921 12.9129C146.622 12.94 146.323 12.9743 146.025 13.0149C145.726 13.0555 145.455 13.0962 145.211 13.1368C145.02 12.8244 144.834 12.5129 144.651 12.1995C144.468 11.8871 144.281 11.5819 144.091 11.2831C144.321 11.3372 144.645 11.3815 145.058 11.4158C145.473 11.4501 145.886 11.4772 146.301 11.4971C146.714 11.5178 147.095 11.5314 147.441 11.5377C147.787 11.5449 148.008 11.5476 148.103 11.5476C148.171 11.5476 148.404 11.544 148.805 11.5377C149.205 11.5314 149.684 11.5242 150.241 11.5178C150.797 11.5115 151.391 11.5007 152.023 11.4871C152.655 11.4736 153.239 11.4564 153.775 11.4366C154.311 11.4158 154.756 11.3923 155.109 11.3652C155.462 11.3381 155.638 11.3038 155.638 11.2632C155.638 11.2767 155.624 11.3481 155.597 11.4772C155.57 11.6063 155.532 11.7589 155.485 11.935C155.437 12.112 155.394 12.2916 155.353 12.4749C155.311 12.6582 155.285 12.8108 155.271 12.9327C155.244 13.1639 155.206 13.4086 155.159 13.6659C155.111 13.9242 155.074 14.1688 155.047 14.3991C155.156 14.3856 155.248 14.3756 155.323 14.3684C155.397 14.3621 155.489 14.3512 155.598 14.3377C155.557 14.5959 155.52 14.847 155.486 15.0916C155.452 15.3363 155.415 15.5874 155.374 15.8456C154.234 15.805 153.106 15.7842 151.994 15.7842C151.07 15.7842 150.232 15.7914 149.478 15.805C148.724 15.8185 148.137 15.8393 147.716 15.8664V17.6993C147.716 17.8212 147.723 17.9097 147.737 17.9639C147.751 18.0181 147.785 18.0551 147.839 18.0758C147.893 18.0966 147.975 18.1029 148.084 18.0966C148.192 18.0894 148.341 18.0867 148.532 18.0867C149.061 18.0867 149.672 18.0695 150.365 18.0361C151.057 18.0018 151.77 17.9549 152.503 17.8935C153.236 17.8321 153.952 17.7643 154.652 17.6894C155.351 17.6144 155.966 17.5296 156.495 17.4348C156.441 17.7472 156.379 18.0596 156.311 18.372C156.244 18.6844 156.182 18.9959 156.128 19.3093C155.612 19.2957 155.069 19.2858 154.498 19.2786C153.928 19.2713 153.351 19.2686 152.767 19.2686C151.654 19.2686 150.568 19.2894 149.509 19.33C148.45 19.3707 147.533 19.3914 146.759 19.3914C146.243 19.3914 145.897 19.2722 145.721 19.0348C145.544 18.7973 145.456 18.502 145.456 18.149V16.744C145.456 16.4993 145.439 16.3025 145.406 16.1535C145.371 16.0045 145.3 15.8781 145.192 15.777C145.083 15.6749 144.924 15.5837 144.713 15.5016C144.503 15.4203 144.227 15.3255 143.888 15.2163C143.983 15.0944 144.061 14.9688 144.122 14.8397C144.183 14.7106 144.255 14.5851 144.336 14.4632C145.028 14.5309 145.764 14.5788 146.545 14.6059C147.326 14.633 148.11 14.6465 148.897 14.6465C149.604 14.6465 150.296 14.6402 150.975 14.6257C151.654 14.6122 152.299 14.5923 152.91 14.5643L152.907 14.5616ZM153.213 6.19052C152.819 6.21761 152.418 6.2447 152.011 6.27178C151.604 6.29887 151.21 6.33318 150.83 6.37381C150.45 6.41445 150.093 6.45508 149.761 6.49571C149.427 6.53634 149.153 6.57698 148.935 6.61761C148.785 6.30519 148.64 6 148.497 5.70113C148.355 5.40226 148.209 5.10339 148.06 4.80542C148.249 4.81896 148.467 4.83973 148.711 4.86682C148.956 4.89391 149.204 4.91738 149.455 4.93815C149.706 4.95892 149.954 4.97607 150.198 4.98871C150.442 5.00226 150.666 5.00948 150.869 5.00948C151.141 5.00948 151.483 5.00587 151.898 4.99955C152.312 4.99323 152.749 4.97607 153.212 4.94898V2.60677C153.212 2.21309 153.015 1.88713 152.621 1.62889C152.227 1.37156 151.576 1.12686 150.665 0.895711C150.747 0.746727 150.829 0.59684 150.91 0.447855C150.991 0.298871 151.066 0.148984 151.134 0C151.446 0.0406321 151.817 0.0948081 152.244 0.162528C152.672 0.230248 153.102 0.305192 153.537 0.386456C153.971 0.46772 154.389 0.542664 154.789 0.610384C155.189 0.678104 155.519 0.73228 155.777 0.772912C155.75 0.894808 155.726 1.05824 155.706 1.2614C155.686 1.46546 155.661 1.66862 155.634 1.87269C155.607 2.07675 155.586 2.25643 155.573 2.41264C155.559 2.56885 155.552 2.65372 155.552 2.66727V7.33183C155.552 7.57652 155.539 7.86456 155.511 8.19774C155.484 8.53093 155.45 8.86682 155.409 9.20632C155.369 9.54582 155.325 9.86546 155.277 10.1634C155.229 10.4623 155.185 10.6998 155.144 10.8767C154.859 10.9174 154.571 10.9553 154.278 10.9887C153.985 11.023 153.69 11.0537 153.392 11.0808C153.365 10.9454 153.342 10.7648 153.321 10.5409C153.3 10.3169 153.283 10.0795 153.27 9.82844C153.257 9.57743 153.243 9.32912 153.23 9.08533C153.216 8.84063 153.209 8.62393 153.209 8.43341V6.19323L153.213 6.19052Z" fill="var(--fill-0, #0F0F0F)"/>
</g>
</g>
<defs>
<linearGradient id="paint0_linear_468_269" x1="38.1673" y1="11.0344" x2="143.299" y2="244.533" gradientUnits="userSpaceOnUse">
<stop stop-color="#F0A722"/>
<stop offset="1" stop-color="#D96206"/>
</linearGradient>
<linearGradient id="paint1_linear_468_269" x1="-483.905" y1="-28.6434" x2="-378.775" y2="204.858" gradientUnits="userSpaceOnUse">
<stop stop-color="#F0A722"/>
<stop offset="1" stop-color="#D96206"/>
</linearGradient>
<linearGradient id="paint2_linear_468_269" x1="-7.24032" y1="8.7844" x2="22.8396" y2="142.416" gradientUnits="userSpaceOnUse">
<stop stop-color="#F0A722"/>
<stop offset="1" stop-color="#D96206"/>
</linearGradient>
<linearGradient id="paint3_linear_468_269" x1="-70.9502" y1="6.36342" x2="-40.8703" y2="139.995" gradientUnits="userSpaceOnUse">
<stop stop-color="#F0A722"/>
<stop offset="1" stop-color="#D96206"/>
</linearGradient>
<linearGradient id="paint4_linear_468_269" x1="-342.297" y1="-3.94723" x2="-312.217" y2="129.684" gradientUnits="userSpaceOnUse">
<stop stop-color="#F0A722"/>
<stop offset="1" stop-color="#D96206"/>
</linearGradient>
<linearGradient id="paint5_linear_468_269" x1="-404.835" y1="-6.32305" x2="-374.755" y2="127.309" gradientUnits="userSpaceOnUse">
<stop stop-color="#F0A722"/>
<stop offset="1" stop-color="#D96206"/>
</linearGradient>
<linearGradient id="paint6_linear_468_269" x1="-60.4777" y1="4.84444" x2="-24.7781" y2="104.3" gradientUnits="userSpaceOnUse">
<stop stop-color="#F0A722"/>
<stop offset="1" stop-color="#D96206"/>
</linearGradient>
<linearGradient id="paint7_linear_468_269" x1="8.63569" y1="1.66521" x2="48.1012" y2="17.8801" gradientUnits="userSpaceOnUse">
<stop stop-color="#F0A722"/>
<stop offset="1" stop-color="#D96206"/>
</linearGradient>
</defs>
</svg>
