<svg preserveAspectRatio="none" width="100%" height="100%" overflow="visible" style="display: block;" viewBox="0 0 13.7501 12.9166" fill="none" xmlns="http://www.w3.org/2000/svg">
<g id="icon">
<g id="Vector">
<path d="M6.90009 1.06694C7.14417 0.822864 7.14417 0.427136 6.90009 0.183058C6.65601 -0.0610194 6.26028 -0.0610194 6.0162 0.183058L0.183246 6.01602C0.183152 6.01611 0.183339 6.01592 0.183246 6.01602C-0.0608319 6.26009 -0.0612066 6.6562 0.182871 6.90027C0.185946 6.90335 0.189044 6.90639 0.192167 6.90938L6.0163 12.7335C6.26038 12.9776 6.6561 12.9776 6.90018 12.7335C7.14426 12.4894 7.14426 12.0937 6.90018 11.8496L1.50879 6.45824L6.90009 1.06694Z" fill="var(--fill-0, #6D6A68)"/>
<path d="M13.5668 1.06694C13.8108 0.822864 13.8108 0.427136 13.5668 0.183058C13.3227 -0.0610194 12.9269 -0.0610194 12.6829 0.183058L6.84991 6.01602C6.84982 6.01611 6.85001 6.01592 6.84991 6.01602C6.60583 6.26009 6.60546 6.6562 6.84954 6.90027C6.85261 6.90335 6.85571 6.90639 6.85883 6.90938L12.683 12.7335C12.927 12.9776 13.3228 12.9776 13.5668 12.7335C13.8109 12.4894 13.8109 12.0937 13.5668 11.8496L8.17546 6.45824L13.5668 1.06694Z" fill="var(--fill-0, #6D6A68)"/>
</g>
</g>
</svg>
