<svg preserveAspectRatio="none" width="100%" height="100%" overflow="visible" style="display: block;" viewBox="0 0 15 15" fill="none" xmlns="http://www.w3.org/2000/svg">
<g id="Vector">
<path d="M15 7.5C15 11.6421 11.6421 15 7.5 15C3.35786 15 0 11.6421 0 7.5C0 3.35786 3.35786 0 7.5 0C11.6421 0 15 3.35786 15 7.5Z" fill="#C5C3C3"/>
<path d="M6.66667 11.6667V7.5H5.83333C5.3731 7.5 5 7.1269 5 6.66667C5 6.20643 5.3731 5.83333 5.83333 5.83333H7.5C7.96024 5.83333 8.33333 6.20643 8.33333 6.66667V11.6667C8.33333 12.1269 7.96024 12.5 7.5 12.5C7.03976 12.5 6.66667 12.1269 6.66667 11.6667ZM6.66667 4.16667V3.33333C6.66667 2.8731 7.03976 2.5 7.5 2.5C7.96024 2.5 8.33333 2.8731 8.33333 3.33333V4.16667C8.33333 4.6269 7.96024 5 7.5 5C7.03976 5 6.66667 4.6269 6.66667 4.16667Z" fill="var(--fill-0, #575553)"/>
</g>
</svg>
