<svg preserveAspectRatio="none" width="100%" height="100%" overflow="visible" style="display: block;" viewBox="0 0 13.7501 12.9167" fill="none" xmlns="http://www.w3.org/2000/svg">
<g id="icon">
<g id="Vector">
<path d="M6.8499 1.0671C6.60582 0.823027 6.60582 0.427299 6.8499 0.183221C7.09398 -0.0608567 7.48971 -0.0608567 7.73378 0.183221L13.5667 6.01618V6.01618C13.8108 6.26026 13.8112 6.65636 13.5671 6.90044C13.564 6.90351 13.5609 6.90655 13.5578 6.90954L7.73369 12.7337C7.48961 12.9778 7.09388 12.9778 6.84981 12.7337C6.60573 12.4896 6.60573 12.0939 6.84981 11.8498L12.2412 6.4584L6.8499 1.0671Z" fill="var(--fill-0, #6D6A68)"/>
<path d="M0.183233 1.0671C-0.0608436 0.823027 -0.0608436 0.427299 0.183233 0.183221C0.427311 -0.0608567 0.82304 -0.0608567 1.06712 0.183221L6.90008 6.01618V6.01618C7.14415 6.26026 7.14453 6.65636 6.90045 6.90044C6.89738 6.90351 6.89428 6.90655 6.89115 6.90954L1.06702 12.7337C0.822945 12.9778 0.427218 12.9778 0.18314 12.7337C-0.0609382 12.4896 -0.0609382 12.0939 0.18314 11.8498L5.57453 6.4584L0.183233 1.0671Z" fill="var(--fill-0, #6D6A68)"/>
</g>
</g>
</svg>
