<svg preserveAspectRatio="none" width="100%" height="100%" overflow="visible" style="display: block;" viewBox="0 0 16 16" fill="none" xmlns="http://www.w3.org/2000/svg">
<g id="icon/arrow/left">
<path id="Vector (Stroke)" d="M6.26011 2.98233C6.45425 2.78604 6.77079 2.78436 6.96714 2.97843C7.16347 3.17261 7.16523 3.48912 6.97104 3.68546L3.19826 7.50056H14.0003L14.0511 7.50316C14.3033 7.52873 14.5003 7.74164 14.5003 8.00056C14.5002 8.25937 14.3032 8.47243 14.0511 8.49796L14.0003 8.50056H3.19826L6.97104 12.315L7.00555 12.3534C7.16442 12.5507 7.15111 12.8401 6.96714 13.022C6.78302 13.204 6.49333 13.214 6.29787 13.0526L6.26011 13.0181L1.64487 8.35212C1.4522 8.15734 1.45226 7.84382 1.64487 7.649L6.26011 2.98233Z" fill="var(--fill-0, #6D6A68)"/>
</g>
</svg>
